<?xml version="1.0" standalone="no"?>
<!DOCTYPE svg PUBLIC "-//W3C//DTD SVG 20010904//EN"
 "http://www.w3.org/TR/2001/REC-SVG-20010904/DTD/svg10.dtd">
<svg version="1.0" xmlns="http://www.w3.org/2000/svg"
 width="164.000000pt" height="172.000000pt" viewBox="0 0 164.000000 172.000000"
 preserveAspectRatio="xMidYMid meet">

<g transform="translate(0.000000,172.000000) scale(0.100000,-0.100000)"
fill="#000000" stroke="none">
<path d="M681 800 c-42 -10 -51 -24 -51 -78 0 -81 58 -167 129 -191 76 -25
143 -2 205 71 42 48 49 68 44 124 -3 33 -8 42 -38 57 l-35 17 -3 -26 c-5 -35
3 -40 38 -27 27 10 30 9 30 -8 0 -15 -5 -17 -29 -13 -16 3 -31 2 -34 -3 -5 -8
1 -45 18 -99 6 -18 0 -24 -32 -37 -21 -9 -32 -16 -25 -16 7 -1 10 -6 6 -12 -4
-8 -9 -8 -17 0 -17 17 -47 14 -41 -4 4 -10 0 -15 -11 -15 -9 0 -15 6 -12 13 2
6 -3 17 -12 23 -10 8 -16 34 -19 77 l-4 65 -42 6 c-55 9 -106 26 -106 36 0 4
21 2 47 -6 64 -19 102 -18 109 4 3 9 10 25 15 35 7 13 5 17 -6 17 -8 0 -15 -7
-15 -15 0 -8 -5 -15 -11 -15 -5 0 -8 -4 -4 -9 3 -5 1 -12 -4 -15 -5 -4 -12 -2
-15 3 -4 5 -2 12 4 16 5 3 10 13 10 21 0 16 -33 17 -89 4z m59 -20 c0 -5 -4
-10 -9 -10 -6 0 -13 5 -16 10 -3 6 1 10 9 10 9 0 16 -4 16 -10z m-70 -70 c0
-5 -7 -10 -16 -10 -8 0 -12 5 -9 10 3 6 10 10 16 10 5 0 9 -4 9 -10z m44 -42
c-3 -4 -12 -8 -20 -8 -17 0 -19 27 -1 33 14 5 28 -13 21 -25z m266 22 c0 -5
-2 -10 -4 -10 -3 0 -8 5 -11 10 -3 6 -1 10 4 10 6 0 11 -4 11 -10z m-210 -20
c0 -5 -7 -10 -15 -10 -8 0 -15 5 -15 10 0 6 7 10 15 10 8 0 15 -4 15 -10z
m210 -10 c0 -5 -5 -10 -11 -10 -5 0 -7 5 -4 10 3 6 8 10 11 10 2 0 4 -4 4 -10z
m-230 -30 c0 -5 -4 -10 -10 -10 -5 0 -10 5 -10 10 0 6 5 10 10 10 6 0 10 -4
10 -10z m30 -30 c0 -5 -7 -10 -15 -10 -8 0 -15 5 -15 10 0 6 7 10 15 10 8 0
15 -4 15 -10z m-50 -30 c0 -5 -2 -10 -4 -10 -3 0 -8 5 -11 10 -3 6 -1 10 4 10
6 0 11 -4 11 -10z m54 -22 c-9 -14 -23 2 -17 18 4 12 8 13 14 3 4 -7 5 -17 3
-21z"/>
<path d="M827 703 c-7 -12 9 -47 26 -62 20 -16 35 -7 48 26 12 32 3 46 -21 33
-13 -7 -21 -7 -25 0 -7 12 -22 13 -28 3z"/>
</g>
</svg>
